<svg width="187" height="185" viewBox="0 0 187 185" fill="none" xmlns="http://www.w3.org/2000/svg">
<path d="M178.937 140.738H149.93V144.801H178.937V140.738Z" fill="#263238" stroke="#263238" stroke-width="0.0527931" stroke-miterlimit="10"/>
<path d="M147.215 138.844H143.379V143.849H147.215V138.844Z" fill="#F31D32" stroke="#263238" stroke-width="0.0527931" stroke-miterlimit="10"/>
<path d="M164.727 138.844H160.891V143.849H164.727V138.844Z" fill="#F31D32" stroke="#263238" stroke-width="0.0527931" stroke-miterlimit="10"/>
<path d="M181.81 146.016H140.707V168.368H181.81V146.016Z" fill="white" stroke="#263238" stroke-width="0.0527931" stroke-miterlimit="10"/>
<path d="M181.816 146.016H166.727V168.368H181.816V146.016Z" fill="white" stroke="#263238" stroke-width="0.0527931" stroke-miterlimit="10"/>
<path d="M182.735 143.07H139.785V147.133H182.735V143.07Z" fill="#263238" stroke="#263238" stroke-width="0.0527931" stroke-miterlimit="10"/>
<path d="M182.735 168.363H139.785V170.395H182.735V168.363Z" fill="#263238" stroke="#263238" stroke-width="0.0527931" stroke-miterlimit="10"/>
<path d="M146.711 151.02H142.707V152.188H146.711V151.02Z" fill="#263238" stroke="#263238" stroke-width="0.0527931" stroke-miterlimit="10"/>
<path d="M164.894 151.02H160.891V152.188H164.894V151.02Z" fill="#263238" stroke="#263238" stroke-width="0.0527931" stroke-miterlimit="10"/>
<path d="M163.473 153.602V149.598H162.304V153.602H163.473Z" fill="#263238" stroke="#263238" stroke-width="0.0527931" stroke-miterlimit="10"/>
<path d="M128.232 148.168H71.4243C70.6032 148.168 69.9375 148.834 69.9375 149.655V168.443C69.9375 169.264 70.6032 169.93 71.4243 169.93H128.232C129.053 169.93 129.719 169.264 129.719 168.443V149.655C129.719 148.834 129.053 148.168 128.232 148.168Z" fill="#878787" stroke="#263238" stroke-width="0.0527931" stroke-miterlimit="10"/>
<path d="M120.755 148.172L98.9979 169.929H69.8777C69.6821 169.93 69.4883 169.892 69.3074 169.817C69.1266 169.743 68.9622 169.633 68.8237 169.495C68.6852 169.357 68.5753 169.193 68.5003 169.012C68.4253 168.832 68.3867 168.638 68.3867 168.443V149.659C68.3867 149.463 68.4253 149.269 68.5003 149.089C68.5753 148.908 68.6852 148.744 68.8237 148.606C68.9622 148.468 69.1266 148.358 69.3074 148.284C69.4883 148.209 69.6821 148.171 69.8777 148.172H120.755Z" fill="#263238" stroke="#263238" stroke-width="0.0527931" stroke-miterlimit="10"/>
<path d="M128.173 153.836V168.444C128.173 168.839 128.016 169.217 127.737 169.496C127.459 169.774 127.08 169.931 126.686 169.931H112.082L128.173 153.836Z" fill="#263238" stroke="#263238" stroke-width="0.0527931" stroke-miterlimit="10"/>
<path d="M126.213 150.527V167.762H95.8828L95.0577 166.405H76.5796L75.7546 167.762H70.3477V150.527H75.5954L76.5796 152.152H95.0577L96.042 150.527H126.213Z" fill="#878787" stroke="#263238" stroke-width="0.0527931" stroke-miterlimit="10"/>
<path d="M94.2197 156.043H77.7812V162.392H94.2197V156.043Z" fill="#878787" stroke="#263238" stroke-width="0.0527931" stroke-miterlimit="10"/>
<path d="M95.0571 166.406L95.8821 167.763H75.7539L76.579 166.406H95.0571Z" fill="#263238" stroke="#263238" stroke-width="0.0527931" stroke-miterlimit="10"/>
<path d="M76.578 152.152L75.5938 150.527H96.0403L95.0561 152.152H76.578Z" fill="#263238" stroke="#263238" stroke-width="0.0527931" stroke-miterlimit="10"/>
<path d="M85.8173 164.963C89.0302 164.963 91.6347 162.358 91.6347 159.145C91.6347 155.933 89.0302 153.328 85.8173 153.328C82.6045 153.328 80 155.933 80 159.145C80 162.358 82.6045 164.963 85.8173 164.963Z" fill="#F31D32" stroke="#263238" stroke-width="0.0527931" stroke-miterlimit="10"/>
<path d="M86.8868 163.681C89.3953 163.092 90.9511 160.581 90.3618 158.072C89.7725 155.564 87.2613 154.008 84.7529 154.597C82.2444 155.186 80.6886 157.698 81.2779 160.206C81.8672 162.714 84.3784 164.27 86.8868 163.681Z" fill="#263238" stroke="#263238" stroke-width="0.0527931" stroke-miterlimit="10"/>
<path d="M95.0564 166.405H76.5782L75.7406 167.762H95.8689L95.0564 166.405ZM75.5898 150.527L76.5741 152.152H95.0522L96.0364 150.527H75.5898Z" fill="#263238" stroke="#263238" stroke-width="0.0527931" stroke-miterlimit="10"/>
<path d="M124.286 154.996H95.1914V163.255H124.286V154.996Z" fill="#878787" stroke="#263238" stroke-width="0.0527931" stroke-miterlimit="10"/>
<path d="M97.1562 155.195V156.967" stroke="#263238" stroke-width="0.0527931" stroke-miterlimit="10"/>
<path d="M100.398 155.195V156.967" stroke="#263238" stroke-width="0.0527931" stroke-miterlimit="10"/>
<path d="M103.645 155.195V156.967" stroke="#263238" stroke-width="0.0527931" stroke-miterlimit="10"/>
<path d="M106.891 155.195V156.967" stroke="#263238" stroke-width="0.0527931" stroke-miterlimit="10"/>
<path d="M110.129 155.195V156.967" stroke="#263238" stroke-width="0.0527931" stroke-miterlimit="10"/>
<path d="M113.375 155.195V156.967" stroke="#263238" stroke-width="0.0527931" stroke-miterlimit="10"/>
<path d="M116.621 155.195V156.967" stroke="#263238" stroke-width="0.0527931" stroke-miterlimit="10"/>
<path d="M119.863 155.195V156.967" stroke="#263238" stroke-width="0.0527931" stroke-miterlimit="10"/>
<path d="M123.109 155.195V156.967" stroke="#263238" stroke-width="0.0527931" stroke-miterlimit="10"/>
<path d="M97.1562 161.387V163.154" stroke="#263238" stroke-width="0.0527931" stroke-miterlimit="10"/>
<path d="M100.398 161.387V163.154" stroke="#263238" stroke-width="0.0527931" stroke-miterlimit="10"/>
<path d="M103.645 161.387V163.154" stroke="#263238" stroke-width="0.0527931" stroke-miterlimit="10"/>
<path d="M106.891 161.387V163.154" stroke="#263238" stroke-width="0.0527931" stroke-miterlimit="10"/>
<path d="M110.129 161.387V163.154" stroke="#263238" stroke-width="0.0527931" stroke-miterlimit="10"/>
<path d="M113.375 161.387V163.154" stroke="#263238" stroke-width="0.0527931" stroke-miterlimit="10"/>
<path d="M116.621 161.387V163.154" stroke="#263238" stroke-width="0.0527931" stroke-miterlimit="10"/>
<path d="M119.863 161.387V163.154" stroke="#263238" stroke-width="0.0527931" stroke-miterlimit="10"/>
<path d="M123.109 161.387V163.154" stroke="#263238" stroke-width="0.0527931" stroke-miterlimit="10"/>
<path d="M71.6875 153.777V156.642L76.8808 156.977V154.925L71.6875 153.777Z" fill="#F31D32" stroke="#263238" stroke-width="0.0527931" stroke-miterlimit="10"/>
<path d="M71.6875 164.086V161.226L76.8808 160.539V162.943L71.6875 164.086Z" fill="#F31D32" stroke="#263238" stroke-width="0.0527931" stroke-miterlimit="10"/>
<path d="M76.9884 159.725L71.5312 160.596V157.43L76.9884 157.882V159.725Z" fill="#F31D32" stroke="#263238" stroke-width="0.0527931" stroke-miterlimit="10"/>
<path d="M123.357 153.074C123.787 153.074 124.136 152.725 124.136 152.295C124.136 151.864 123.787 151.516 123.357 151.516C122.927 151.516 122.578 151.864 122.578 152.295C122.578 152.725 122.927 153.074 123.357 153.074Z" fill="#F31D32" stroke="#263238" stroke-width="0.0527931" stroke-miterlimit="10"/>
<path d="M126.866 148.168H69.7524C68.9313 148.168 68.2656 148.834 68.2656 149.655V168.443C68.2656 169.264 68.9313 169.93 69.7524 169.93H126.866C127.687 169.93 128.353 169.264 128.353 168.443V149.655C128.353 148.834 127.687 148.168 126.866 148.168Z" stroke="#263238" stroke-width="0.0527931" stroke-miterlimit="10"/>
<path d="M17.3723 173.33C26.3885 173.33 33.6977 166.021 33.6977 157.005C33.6977 147.989 26.3885 140.68 17.3723 140.68C8.35601 140.68 1.04688 147.989 1.04688 157.005C1.04688 166.021 8.35601 173.33 17.3723 173.33Z" fill="#F31D32" stroke="#263238" stroke-width="0.0527931" stroke-miterlimit="10"/>
<path d="M16.6574 173.33C25.6737 173.33 32.9828 166.021 32.9828 157.005C32.9828 147.989 25.6737 140.68 16.6574 140.68C7.64116 140.68 0.332031 147.989 0.332031 157.005C0.332031 166.021 7.64116 173.33 16.6574 173.33Z" fill="#F31D32" stroke="#263238" stroke-width="0.0527931" stroke-miterlimit="10"/>
<path d="M20.2401 169.529C27.155 167.546 31.1532 160.333 29.1704 153.418C27.1876 146.503 19.9746 142.505 13.0596 144.488C6.14471 146.471 2.14646 153.684 4.12928 160.599C6.1121 167.514 13.3251 171.512 20.2401 169.529Z" fill="#263238" stroke="#263238" stroke-width="0.0527931" stroke-miterlimit="10"/>
<path d="M16.6585 159.942C18.28 159.942 19.5944 158.628 19.5944 157.006C19.5944 155.385 18.28 154.07 16.6585 154.07C15.0371 154.07 13.7227 155.385 13.7227 157.006C13.7227 158.628 15.0371 159.942 16.6585 159.942Z" fill="#F31D32" stroke="#263238" stroke-width="0.0527931" stroke-miterlimit="10"/>
<path d="M18.5439 157.007C18.5447 156.632 18.4343 156.265 18.2266 155.953C18.0189 155.641 17.7233 155.398 17.3772 155.254C17.0311 155.11 16.6502 155.073 16.2826 155.146C15.915 155.218 15.5773 155.399 15.3123 155.664C15.0473 155.929 14.8669 156.267 14.794 156.634C14.7211 157.002 14.7589 157.383 14.9027 157.729C15.0465 158.075 15.2898 158.37 15.6017 158.578C15.9137 158.786 16.2803 158.896 16.655 158.895C17.156 158.895 17.6364 158.696 17.9907 158.342C18.3449 157.988 18.5439 157.508 18.5439 157.007Z" fill="white" stroke="#263238" stroke-width="0.0527931" stroke-miterlimit="10"/>
<path d="M16.6562 155.109V158.891" stroke="#263238" stroke-width="0.0527931" stroke-miterlimit="10"/>
<path d="M14.7656 157.008H18.5475" stroke="#263238" stroke-width="0.0527931" stroke-miterlimit="10"/>
<path d="M40.0871 173.33C49.1034 173.33 56.4125 166.021 56.4125 157.005C56.4125 147.989 49.1034 140.68 40.0871 140.68C31.0709 140.68 23.7617 147.989 23.7617 157.005C23.7617 166.021 31.0709 173.33 40.0871 173.33Z" fill="#F31D32" stroke="#263238" stroke-width="0.0527931" stroke-miterlimit="10"/>
<path d="M39.3723 173.33C48.3885 173.33 55.6977 166.021 55.6977 157.005C55.6977 147.989 48.3885 140.68 39.3723 140.68C30.356 140.68 23.0469 147.989 23.0469 157.005C23.0469 166.021 30.356 173.33 39.3723 173.33Z" fill="#F31D32" stroke="#263238" stroke-width="0.0527931" stroke-miterlimit="10"/>
<path d="M48.5797 166.218C53.6664 161.131 53.6663 152.884 48.5797 147.798C43.4931 142.711 35.246 142.711 30.1594 147.798C25.0727 152.884 25.0728 161.131 30.1594 166.218C35.246 171.305 43.4931 171.305 48.5797 166.218Z" fill="#263238" stroke="#263238" stroke-width="0.0527931" stroke-miterlimit="10"/>
<path d="M39.3695 159.942C40.9909 159.942 42.3054 158.628 42.3054 157.006C42.3054 155.385 40.9909 154.07 39.3695 154.07C37.748 154.07 36.4336 155.385 36.4336 157.006C36.4336 158.628 37.748 159.942 39.3695 159.942Z" fill="#F31D32" stroke="#263238" stroke-width="0.0527931" stroke-miterlimit="10"/>
<path d="M41.2509 157.007C41.2518 156.632 41.1414 156.266 40.9339 155.954C40.7264 155.642 40.4311 155.399 40.0852 155.255C39.7394 155.111 39.3586 155.073 38.9911 155.145C38.6237 155.218 38.286 155.398 38.0208 155.662C37.7556 155.927 37.5749 156.264 37.5015 156.632C37.4281 156.999 37.4654 157.38 37.6085 157.726C37.7517 158.072 37.9943 158.368 38.3057 158.576C38.6171 158.784 38.9833 158.895 39.3579 158.895C39.8592 158.895 40.3401 158.697 40.695 158.342C41.0499 157.988 41.2498 157.508 41.2509 157.007Z" fill="white" stroke="#263238" stroke-width="0.0527931" stroke-miterlimit="10"/>
<path d="M39.3711 155.109V158.891" stroke="#263238" stroke-width="0.0527931" stroke-miterlimit="10"/>
<path d="M37.4805 157.008H41.2624" stroke="#263238" stroke-width="0.0527931" stroke-miterlimit="10"/>
<path d="M169.484 122.867C169.647 117.815 137.23 112.669 97.0779 111.372C56.9257 110.075 24.2437 113.119 24.0806 118.17C23.9174 123.221 56.3349 128.368 96.487 129.665C136.639 130.962 169.321 127.918 169.484 122.867Z" fill="#263238" stroke="#263238" stroke-width="0.0527931" stroke-miterlimit="10"/>
<path d="M25.916 104.826C25.916 104.826 26.7997 106.74 27.4321 107.393C28.0646 108.046 39.4689 110.869 39.4689 110.869L76.4293 118.961L80.9064 118.479L96.5575 118.982C96.5575 118.982 99.6819 111.343 96.2727 103.816C92.8636 96.2903 75.8094 93.3461 70.9889 94.8789C66.1683 96.4118 54.8771 101.345 46.7646 98.6483C38.6522 95.9511 32.1815 90.6531 29.476 91.3567C26.7704 92.0603 25.4805 96.416 25.4805 98.2965C25.4805 100.177 25.916 104.826 25.916 104.826Z" fill="#263238" stroke="#263238" stroke-width="0.0527931" stroke-miterlimit="10"/>
<path d="M105.366 115.288C105.044 107.519 99.8464 101.212 93.761 101.195H87.1605L87.2778 103.976C84.6979 106.535 83.1315 110.623 83.32 115.23C83.5085 119.837 85.4141 123.937 88.2117 126.508L88.329 129.327H94.9253C101.015 129.34 105.689 123.057 105.366 115.288Z" fill="#263238" stroke="#263238" stroke-width="0.0527931" stroke-miterlimit="10"/>
<path d="M89.3003 129.262C95.3352 128.594 99.5326 121.779 98.6755 114.04C97.8185 106.302 92.2315 100.571 86.1966 101.239C80.1617 101.907 75.9643 108.722 76.8214 116.461C77.6784 124.199 83.2654 129.931 89.3003 129.262Z" fill="#878787" stroke="#263238" stroke-width="0.0527931" stroke-miterlimit="10"/>
<path d="M96.2735 120.048C96.3782 119.7 96.4746 119.344 96.5541 118.98C96.6323 118.611 96.6993 118.238 96.7552 117.861C96.8686 117.008 96.9078 116.146 96.8724 115.286C96.8071 113.479 96.4081 111.7 95.6956 110.038L95.6746 109.996C95.5239 109.648 95.3563 109.309 95.1762 108.982L95.1427 108.92C94.9626 108.597 94.7742 108.283 94.5731 107.982L94.5396 107.931C92.7555 105.305 90.1379 103.617 87.2774 103.613C84.8273 103.613 82.6704 104.832 81.1041 106.83C80.9994 106.96 80.8988 107.098 80.8025 107.249C80.7062 107.387 80.6099 107.529 80.5177 107.667C80.4256 107.81 80.3376 107.956 80.2539 108.086C80.1701 108.233 80.0905 108.379 80.0151 108.53V108.555C79.9398 108.702 79.8686 108.848 79.7974 109.003V109.037C79.7303 109.184 79.6675 109.334 79.6047 109.485C79.6047 109.485 79.6047 109.519 79.5838 109.54C79.5251 109.686 79.4707 109.833 79.4162 109.983L79.3911 110.055C79.3409 110.197 79.2948 110.344 79.2487 110.494C79.2487 110.524 79.2278 110.553 79.2194 110.582C79.1775 110.725 79.1398 110.871 79.0979 111.001C79.0901 111.039 79.0804 111.077 79.0686 111.114C79.0351 111.252 79.0016 111.395 78.9723 111.533C78.9723 111.575 78.9514 111.621 78.943 111.663C78.9137 111.801 78.8885 111.939 78.8634 112.082L78.8383 112.237C78.8131 112.367 78.7964 112.505 78.7796 112.656L78.7545 112.827C78.7545 112.957 78.7252 113.091 78.7126 113.225C78.7126 113.288 78.7126 113.351 78.7126 113.414C78.7126 113.543 78.7126 113.677 78.6875 113.807V114.008C78.6875 114.146 78.6875 114.289 78.6875 114.427C78.6875 114.49 78.6875 114.549 78.6875 114.607C78.6875 114.808 78.6875 115.026 78.6875 115.219C78.6875 115.411 78.7126 115.709 78.7378 115.952C78.7378 116.01 78.7378 116.069 78.7378 116.127C78.7587 116.337 78.7838 116.546 78.8131 116.752V116.848C78.8927 117.359 78.9974 117.857 79.1231 118.347C79.6731 120.637 80.8407 122.731 82.4987 124.403L82.5574 124.458C82.75 124.642 82.9468 124.814 83.1521 124.981L83.1939 125.011C84.6044 126.195 86.3782 126.86 88.2197 126.895C90.0299 126.885 91.7746 126.217 93.1282 125.015C94.617 123.683 95.706 121.963 96.2735 120.048Z" fill="white" stroke="#263238" stroke-width="0.0527931" stroke-miterlimit="10"/>
<path d="M95.8272 115.632C95.7747 114.326 95.5145 113.037 95.0566 111.812L91.4297 114.087C91.5948 114.583 91.6893 115.101 91.7103 115.624C91.7103 115.703 91.7103 115.779 91.7103 115.854L95.8314 116.524C95.8398 116.231 95.8398 115.934 95.8272 115.632Z" fill="#263238" stroke="#263238" stroke-width="0.0527931" stroke-miterlimit="10"/>
<path d="M89.4141 111.468C89.8026 111.685 90.1499 111.968 90.4402 112.306L92.9949 108.377C92.1549 107.434 91.1007 106.706 89.9208 106.254L89.4141 111.468Z" fill="#263238" stroke="#263238" stroke-width="0.0527931" stroke-miterlimit="10"/>
<path d="M91.1902 118.184C91.0138 118.542 90.7851 118.872 90.5117 119.164L92.6058 123.859C93.6596 122.95 94.4785 121.801 94.993 120.508L91.1902 118.184Z" fill="#263238" stroke="#263238" stroke-width="0.0527931" stroke-miterlimit="10"/>
<path d="M85.0232 113.185L81.3251 110.613C80.755 111.963 80.4547 113.412 80.4414 114.877L84.5751 114.994C84.6118 114.369 84.7637 113.755 85.0232 113.185Z" fill="#263238" stroke="#263238" stroke-width="0.0527931" stroke-miterlimit="10"/>
<path d="M86.2817 111.622C86.5811 111.413 86.916 111.26 87.2701 111.17L86.667 105.977C85.3469 106.221 84.1353 106.87 83.1992 107.832L86.2817 111.622Z" fill="#263238" stroke="#263238" stroke-width="0.0527931" stroke-miterlimit="10"/>
<path d="M88.7156 120.134C88.585 120.151 88.4535 120.159 88.3219 120.159C87.9486 120.158 87.579 120.085 87.233 119.945L85.2227 124.439C86.2264 125.05 87.3772 125.377 88.5522 125.386C88.8705 125.387 89.1885 125.364 89.5029 125.315L88.7156 120.134Z" fill="#263238" stroke="#263238" stroke-width="0.0527931" stroke-miterlimit="10"/>
<path d="M84.9942 117.562L80.9023 118.476C81.2979 119.907 81.9773 121.244 82.9001 122.408L85.5219 118.534C85.31 118.231 85.1329 117.905 84.9942 117.562Z" fill="#263238" stroke="#263238" stroke-width="0.0527931" stroke-miterlimit="10"/>
<path d="M43.4698 107.436C43.319 100.927 40.8815 95.6376 38.0252 95.625H31.4414L31.9901 119.196H38.5738C41.4301 119.208 43.6205 113.931 43.4698 107.436Z" fill="#263238" stroke="#263238" stroke-width="0.0527931" stroke-miterlimit="10"/>
<path d="M36.8869 107.436C37.0377 113.944 34.8473 119.208 31.991 119.196C29.1347 119.183 26.6972 113.898 26.5464 107.385C26.3956 100.873 28.586 95.6125 31.4423 95.625C34.2987 95.6376 36.7362 100.948 36.8869 107.436Z" fill="#878787" stroke="#263238" stroke-width="0.0527931" stroke-miterlimit="10"/>
<path d="M35.7173 111.418C35.7676 111.125 35.8137 110.828 35.8514 110.522C35.8891 110.216 35.9184 109.902 35.9435 109.584C35.9938 108.889 36.0147 108.168 35.998 107.427C35.9702 105.945 35.7821 104.471 35.4367 103.03V102.996C35.3655 102.703 35.286 102.418 35.2022 102.159V102.104C35.1143 101.836 35.0263 101.572 34.93 101.321V101.279C34.0923 99.076 32.8652 97.6646 31.5208 97.6562C30.3733 97.6562 29.3556 98.6781 28.6268 100.353C28.5766 100.466 28.5305 100.58 28.4844 100.693C28.4383 100.81 28.3923 100.927 28.3504 101.049C28.3085 101.17 28.2666 101.292 28.2289 101.413C28.1912 101.534 28.1536 101.656 28.1159 101.786C28.0768 101.909 28.0433 102.034 28.0153 102.163V102.192C27.9818 102.313 27.9525 102.439 27.9232 102.569C27.9252 102.583 27.9252 102.597 27.9232 102.611C27.8939 102.732 27.8688 102.858 27.8436 102.984C27.8419 103.003 27.8419 103.023 27.8436 103.042C27.8185 103.164 27.7976 103.289 27.7724 103.411V103.486C27.7724 103.608 27.7347 103.729 27.718 103.851V103.943C27.718 104.06 27.6845 104.177 27.6719 104.294C27.6699 104.332 27.6699 104.37 27.6719 104.408C27.6719 104.521 27.6468 104.638 27.6384 104.751C27.6384 104.797 27.6384 104.839 27.6384 104.881L27.6133 105.22V105.362C27.6133 105.476 27.6133 105.584 27.6133 105.697C27.6133 105.811 27.6133 105.802 27.6133 105.852C27.6133 105.966 27.6133 106.074 27.6133 106.188C27.6133 106.301 27.6133 106.296 27.6133 106.351C27.6133 106.468 27.6133 106.585 27.6133 106.707C27.6133 106.757 27.6133 106.807 27.6133 106.858C27.6133 107.025 27.6133 107.197 27.6133 107.364C27.6133 107.532 27.6133 107.783 27.6133 107.984C27.6133 108.03 27.6133 108.081 27.6133 108.131L27.651 108.65C27.651 108.679 27.651 108.705 27.651 108.734C27.6887 109.153 27.7389 109.572 27.7976 109.99C28.0141 111.764 28.558 113.483 29.4016 115.058L29.4267 115.108C29.5189 115.259 29.611 115.406 29.7074 115.527V115.552C30.3984 116.545 31.2109 117.127 32.0695 117.131C32.928 117.135 33.7196 116.553 34.3688 115.556C35.0802 114.277 35.5381 112.872 35.7173 111.418Z" fill="white" stroke="#263238" stroke-width="0.0527931" stroke-miterlimit="10"/>
<path d="M168.924 110.785C168.602 103.016 163.404 96.7082 157.319 96.6914H150.719C144.629 96.6914 139.955 102.974 140.277 110.73C140.6 118.487 145.797 124.819 151.887 124.819H158.483C164.573 124.84 169.247 118.537 168.924 110.785Z" fill="#263238" stroke="#263238" stroke-width="0.0527931" stroke-miterlimit="10"/>
<path d="M45.5811 62.2992C45.5811 62.2992 42.6494 63.162 42.2599 64.0205C41.8704 64.8791 41.6484 65.4948 41.6484 65.4948L32.7989 78.3985C32.7989 78.3985 29.6033 78.1555 28.6107 80.8569C27.6181 83.5582 27.9993 87.248 27.9993 87.248C27.9993 87.248 25.6623 93.0235 25.5408 97.3247C25.4575 99.8295 25.5808 102.337 25.9094 104.821C25.9094 104.821 25.2937 96.9561 27.1365 94.4977C28.9793 92.0393 32.7905 93.8862 34.2564 98.3089C35.7222 102.732 37.4812 110.965 37.4812 110.965L76.431 118.956C76.431 118.956 74.4626 108.633 77.0467 102.732C79.6308 96.8305 91.6675 97.2032 93.883 107.896C96.0986 118.588 95.3573 120.552 95.3573 120.552C95.3573 120.552 103.591 122.273 128.661 121.905C153.732 121.536 167.494 118.588 171.184 117.604C171.184 117.604 172.021 113.055 172.289 110.354C172.452 108.799 172.198 107.229 171.552 105.806C171.552 105.806 171.305 100.889 170.689 99.1675C170.074 97.4461 168.231 94.8663 168.231 94.8663C168.231 94.8663 166.388 90.565 163.318 87.8637C160.248 85.1623 155.206 82.4568 153.975 81.8411C152.743 81.2255 151.152 80.8569 148.815 79.2612C146.478 77.6655 131.978 67.5847 127.43 64.8833C122.882 62.1819 113.052 60.825 111.096 60.4564C109.14 60.0879 86.5161 58.4922 78.6507 58.4922C70.7854 58.4922 54.5521 58.8607 45.5811 62.2992Z" fill="#F31D32" stroke="#263238" stroke-width="0.0527931" stroke-miterlimit="10"/>
<path opacity="0.15" d="M172.283 110.353C172.446 108.798 172.192 107.228 171.546 105.805C171.546 105.805 171.466 104.23 171.286 102.555C155.908 107.09 128.396 107.396 120.723 106.718C111.907 105.943 96.2683 103.811 95.594 101.273C94.9197 98.735 88.8553 92.9763 84.7048 91.4183C81.1491 90.0865 39.8916 84.3739 28.1648 82.7656C27.9494 84.248 27.9031 85.75 28.0266 87.2428C28.0266 87.2428 25.6896 93.0182 25.5682 97.3194C25.4849 99.8243 25.6081 102.332 25.9367 104.816C25.9367 104.816 25.3211 96.9509 27.1639 94.4924C29.0066 92.034 32.8179 93.881 34.2837 98.3037C35.7496 102.726 37.4793 110.964 37.4793 110.964L76.429 118.955C76.429 118.955 74.4606 108.632 77.0447 102.731C79.6288 96.8294 91.6655 97.2022 93.8811 107.895C96.0966 118.587 95.3553 120.551 95.3553 120.551C95.3553 120.551 103.589 122.272 128.659 121.904C153.73 121.535 167.492 118.587 171.182 117.603C171.178 117.603 172.036 113.054 172.283 110.353Z" fill="black"/>
<path d="M72.4946 66.2312C67.5484 62.688 63.2807 62.1477 61.2787 61.9844C59.3731 65.4061 56.2529 71.881 55.6289 78.5946C66.0993 80.2279 77.78 82.0875 77.78 82.0875C77.78 82.0875 80.4814 83.0675 81.4656 82.0875C81.7883 81.8248 82.0414 81.4868 82.2027 81.1033C82.4498 80.4876 78.1486 70.2895 72.4946 66.2312Z" fill="white" stroke="#263238" stroke-width="0.0527931" stroke-miterlimit="10"/>
<path d="M57.9125 61.9961C55.0903 62.1476 52.2826 62.5017 49.5111 63.0557C46.6841 63.6714 45.6999 63.7928 45.2099 64.287C44.7199 64.7812 39.9245 70.7912 38.2031 75.0799C38.2737 75.3883 38.4451 75.6643 38.69 75.8646C38.935 76.0648 39.2396 76.1777 39.5559 76.1855C39.9747 76.1855 45.1178 76.9645 51.5256 77.9571C52.5978 74.1417 54.7505 67.4407 57.9125 61.9961Z" fill="white" stroke="#263238" stroke-width="0.0527931" stroke-miterlimit="10"/>
<path d="M42.3008 76.378C42.3008 76.378 44.3949 68.3074 48.6249 63.5078" stroke="#263238" stroke-width="0.0527931" stroke-miterlimit="10"/>
<path d="M55.7385 84.3933L52.2414 83.7734C52.1277 83.8074 52.0218 83.8636 51.93 83.9388C51.8381 84.014 51.7622 84.1067 51.7064 84.2115C51.6507 84.3164 51.6164 84.4312 51.6054 84.5494C51.5944 84.6676 51.607 84.7868 51.6425 84.9001C51.9022 85.7586 52.3671 85.6623 52.3671 85.6623L55.2778 86.1314C55.4689 86.1508 55.6604 86.0986 55.8152 85.9849C55.97 85.8711 56.077 85.7039 56.1155 85.5157C56.2662 84.8121 56.4631 84.7241 55.7385 84.3933Z" stroke="#263238" stroke-width="0.0527931" stroke-miterlimit="10"/>
<path d="M38.0598 81.3424L35.3836 80.8398C35.2021 80.9019 35.0524 81.033 34.967 81.2047C34.8815 81.3764 34.8672 81.5749 34.9271 81.757C35.1239 82.4523 35.4799 82.3769 35.4799 82.3769L37.7038 82.758C37.8547 82.7725 38.0054 82.7284 38.1247 82.6349C38.244 82.5413 38.3227 82.4054 38.3446 82.2554C38.4661 81.6775 38.6169 81.6146 38.0598 81.3424Z" stroke="#263238" stroke-width="0.0527931" stroke-miterlimit="10"/>
<path d="M59.4454 61.5781C59.4454 61.5781 54.4615 70.8465 53.582 78.5401" stroke="#263238" stroke-width="0.0527931" stroke-miterlimit="10"/>
<path d="M52.4532 80.1328C52.4532 80.1328 50.179 83.9775 50.0911 85.2884C50.0031 86.5993 50.267 102.338 50.7026 105.224" stroke="#263238" stroke-width="0.0527931" stroke-miterlimit="10"/>
<path d="M77.196 71.5664C77.196 71.5664 75.4454 76.6383 74.9219 79.348" stroke="#263238" stroke-width="0.0527931" stroke-miterlimit="10"/>
<path d="M76.4948 85.6367C76.4948 85.6367 74.5683 92.0195 74.4845 96.8275C74.4007 101.635 74.3086 110.648 74.3086 110.648" stroke="#263238" stroke-width="0.0527931" stroke-miterlimit="10"/>
<path d="M37.9354 76.8086C37.9354 76.8086 33.8268 80.5779 33.4792 81.7925C33.1315 83.0071 33.5629 93.5193 33.5629 93.5193" stroke="#263238" stroke-width="0.0527931" stroke-miterlimit="10"/>
<path d="M38.7383 105.402C38.7383 105.402 39.3497 107.153 40.6606 107.589C41.9715 108.024 73.8015 114.147 73.8015 114.147" stroke="#263238" stroke-width="0.0527931" stroke-miterlimit="10"/>
<path d="M130.922 110.947C130.922 110.947 155.293 111.282 164.347 108.488C164.347 108.488 163.455 114.523 161.776 115.755C160.097 116.986 147.913 118.238 141.991 118.435C135.29 118.661 131.479 117.991 131.479 117.991L130.922 110.947Z" fill="#263238" stroke="#263238" stroke-width="0.0527931" stroke-miterlimit="10"/>
<path d="M126.562 95.7387L129.021 100.765C129.021 100.765 142.771 101.1 144.337 101.208C145.903 101.317 147.579 102.105 149.363 101.208C151.147 100.312 158.866 99.3112 159.762 99.3112C160.658 99.3112 161.772 100.094 161.772 100.094C161.772 100.094 159.762 95.0686 158.979 94.6163C158.392 94.3191 157.731 94.2011 157.077 94.2771C156.746 94.2854 140.425 93.0583 126.562 95.7387Z" fill="#263238" stroke="#263238" stroke-width="0.0527931" stroke-miterlimit="10"/>
<path d="M100.646 85.7055C100.646 85.7055 94.7825 84.805 92.5502 85.5924C90.3179 86.3798 91.4236 89.4162 95.2474 92.2264C99.0712 95.0367 102.221 97.7338 106.137 98.1861C110.052 98.6385 116.837 100.113 117.172 98.8562C117.507 97.5998 116.272 93.1227 111.774 89.8601C107.276 86.5975 100.646 85.7055 100.646 85.7055Z" fill="white" stroke="#263238" stroke-width="0.0527931" stroke-miterlimit="10"/>
<path d="M147.63 79.2864L146.507 79.6256L141.063 79.7806C138.202 79.8644 134.425 79.9691 130.249 80.078C124.486 80.2329 117.969 80.3921 112.085 80.4968C103.089 80.6852 95.5587 80.7816 94.4279 80.614C92.1553 80.3217 90.0203 79.3628 88.2922 77.8582C86.9905 76.6936 85.9081 75.3048 85.0967 73.758C82.4288 68.8286 75.5938 62.76 75.5938 62.76C86.3866 61.5035 112.135 61.9726 115.059 62.0857C115.966 62.1319 116.868 62.2411 117.76 62.4124C120.88 62.9652 124.951 64.1923 127.313 65.7964C127.732 66.0812 128.406 66.5293 129.252 67.0947C131.229 68.414 134.161 70.3573 137.105 72.3089L142.24 75.7055L147.63 79.2864Z" fill="white" stroke="#263238" stroke-width="0.0527931" stroke-miterlimit="10"/>
<path d="M127.291 65.7981C127.71 66.0829 128.384 66.531 129.23 67.0964L112.117 80.4985C103.121 80.6869 95.5907 80.7833 94.4599 80.6158C92.1873 80.3234 90.0523 79.3645 88.3242 77.86L117.738 62.4141C120.858 62.9669 124.929 64.194 127.291 65.7981Z" fill="#263238" stroke="#263238" stroke-width="0.0527931" stroke-miterlimit="10"/>
<path d="M142.217 75.7091L141.095 79.7842C138.235 79.8679 134.457 79.9726 130.281 80.0815L137.083 72.3125L142.217 75.7091Z" fill="#263238" stroke="#263238" stroke-width="0.0527931" stroke-miterlimit="10"/>
<path d="M123.406 92.3789C124.089 93.0741 124.751 93.8071 125.379 94.5861" stroke="#263238" stroke-width="0.0527931" stroke-miterlimit="10"/>
<path d="M106.828 82.4375C106.828 82.4375 115.338 84.9504 122.228 91.2326" stroke="#263238" stroke-width="0.0527931" stroke-miterlimit="10"/>
<path d="M161.336 94.3828C162.235 96.072 162.887 97.8816 163.271 99.7562" stroke="#263238" stroke-width="0.0527931" stroke-miterlimit="10"/>
<path d="M148.32 82.8945C148.32 82.8945 155.859 85.8262 160.378 92.7618" stroke="#263238" stroke-width="0.0527931" stroke-miterlimit="10"/>
<path d="M113.574 113.136C113.574 114.442 112.317 115.498 110.763 115.498C109.21 115.498 107.953 114.442 107.953 113.136C107.953 111.829 109.21 110.773 110.763 110.773C112.317 110.773 113.574 111.837 113.574 113.136Z" fill="white" stroke="#263238" stroke-width="0.0527931" stroke-miterlimit="10"/>
<path d="M171.788 109.298C171.549 110.424 170.791 111.216 170.091 111.065C169.392 110.914 169.019 109.888 169.254 108.762C169.488 107.635 170.25 106.848 170.929 106.994C171.607 107.141 172.026 108.175 171.788 109.298Z" fill="white" stroke="#263238" stroke-width="0.0527931" stroke-miterlimit="10"/>
<path d="M75.1959 80.8446C75.1959 80.8446 72.8631 76.912 71.3889 76.6565C69.9147 76.401 63.645 76.1665 62.2922 77.0292C60.9395 77.892 61.3122 80.7148 61.8022 81.4519C62.2922 82.189 64.2607 82.5576 65.9904 82.4361C67.7201 82.3147 73.4871 82.8047 73.4871 82.8047C73.4871 82.8047 76.9256 85.2631 78.1569 85.016C79.3882 84.7689 80.9839 82.0843 79.8741 80.5891C78.7642 79.094 77.0429 79.5044 75.1959 80.8446Z" fill="#263238" stroke="#263238" stroke-width="0.0527931" stroke-miterlimit="10"/>
<path d="M75.1914 80.8555L79.2497 81.7182" stroke="#263238" stroke-width="0.0527931" stroke-miterlimit="10"/>
<path d="M45.5811 62.2992C45.5811 62.2992 42.6494 63.162 42.2599 64.0205C41.8704 64.8791 41.6484 65.4948 41.6484 65.4948L32.7989 78.3985C32.7989 78.3985 29.6033 78.1555 28.6107 80.8569C27.6181 83.5582 27.9993 87.248 27.9993 87.248C27.9993 87.248 25.6623 93.0235 25.5408 97.3247C25.4575 99.8295 25.5808 102.337 25.9094 104.821C25.9094 104.821 25.2937 96.9561 27.1365 94.4977C28.9793 92.0393 32.7905 93.8862 34.2564 98.3089C35.7222 102.732 37.4812 110.965 37.4812 110.965L76.431 118.956C76.431 118.956 74.4626 108.633 77.0467 102.732C79.6308 96.8305 91.6675 97.2032 93.883 107.896C96.0986 118.588 95.3573 120.552 95.3573 120.552C95.3573 120.552 103.591 122.273 128.661 121.905C153.732 121.536 167.494 118.588 171.184 117.604C171.184 117.604 172.021 113.055 172.289 110.354C172.452 108.799 172.198 107.229 171.552 105.806C171.552 105.806 171.305 100.889 170.689 99.1675C170.074 97.4461 168.231 94.8663 168.231 94.8663C168.231 94.8663 166.388 90.565 163.318 87.8637C160.248 85.1623 155.206 82.4568 153.975 81.8411C152.743 81.2255 151.152 80.8569 148.815 79.2612C146.478 77.6655 131.978 67.5847 127.43 64.8833C122.882 62.1819 113.052 60.825 111.096 60.4564C109.14 60.0879 86.5161 58.4922 78.6507 58.4922C70.7854 58.4922 54.5521 58.8607 45.5811 62.2992Z" stroke="#263238" stroke-width="0.0527931" stroke-miterlimit="10"/>
<path d="M158.886 84.6914C158.886 84.6914 156.415 85.5919 157.089 86.4923C157.764 87.3928 161.474 89.7507 163.158 92.674C164.841 95.5973 165.185 97.059 165.968 97.059C166.751 97.059 168.46 95.6015 168.226 94.8686C167.991 94.1357 166.755 87.5017 158.886 84.6914Z" fill="white" stroke="#263238" stroke-width="0.0527931" stroke-miterlimit="10"/>
<path d="M35.1716 107.229C35.1498 106.086 35.0321 104.947 34.8198 103.824L33.1445 105.851C33.2274 106.306 33.2764 106.767 33.2911 107.229C33.2911 107.3 33.2911 107.367 33.2911 107.434L35.18 108.033C35.1758 107.753 35.1758 107.485 35.1716 107.229Z" fill="#263238" stroke="#263238" stroke-width="0.0527931" stroke-miterlimit="10"/>
<path d="M32.2227 103.5C32.4176 103.722 32.5773 103.972 32.6959 104.242L33.8644 100.736C33.5561 100.002 33.0713 99.3542 32.453 98.8516L32.2227 103.5Z" fill="#263238" stroke="#263238" stroke-width="0.0527931" stroke-miterlimit="10"/>
<path d="M33.0443 109.492C32.9706 109.794 32.8668 110.087 32.7344 110.368L33.6977 114.556C34.2262 113.627 34.5956 112.616 34.7908 111.565L33.0443 109.492Z" fill="#263238" stroke="#263238" stroke-width="0.0527931" stroke-miterlimit="10"/>
<path d="M30.2152 105.033L28.5399 102.738C28.271 103.988 28.1307 105.263 28.1211 106.541L30.0141 106.646C30.0287 106.103 30.0961 105.563 30.2152 105.033Z" fill="#263238" stroke="#263238" stroke-width="0.0527931" stroke-miterlimit="10"/>
<path d="M30.7789 103.638C30.8925 103.463 31.048 103.319 31.2312 103.219L30.9548 98.5703C30.3559 98.7755 29.8114 99.3619 29.3633 100.225L30.7789 103.638Z" fill="#263238" stroke="#263238" stroke-width="0.0527931" stroke-miterlimit="10"/>
<path d="M31.909 111.226C31.8505 111.243 31.7899 111.251 31.7289 111.251C31.5457 111.246 31.3699 111.178 31.2306 111.059L30.3008 115.071C30.4805 115.312 30.71 115.512 30.9738 115.656C31.2376 115.801 31.5294 115.887 31.8295 115.908C31.9715 115.905 32.1124 115.883 32.2483 115.841L31.909 111.226Z" fill="#263238" stroke="#263238" stroke-width="0.0527931" stroke-miterlimit="10"/>
<path d="M30.2044 108.934L28.3281 109.742C28.4906 110.943 28.7986 112.12 29.2453 113.247L30.4473 109.792C30.3461 109.512 30.2649 109.225 30.2044 108.934Z" fill="#263238" stroke="#263238" stroke-width="0.0527931" stroke-miterlimit="10"/>
<path d="M146.173 24.9683L138.324 29.0769L128.298 30.5259C128.298 30.5259 125.161 33.5456 129.508 39.0991C133.855 44.6526 137.114 46.466 138.567 46.466C140.02 46.466 146.524 44.1709 147.622 43.4464C148.719 42.7218 156.559 36.9254 156.559 36.9254C156.559 36.9254 160.19 39.342 165.635 35.3549C171.08 31.3678 185.319 19.5362 185.319 19.5362C185.319 19.5362 187.371 18.2044 186.044 15.5491C184.716 12.8938 180.968 10.2344 178.313 9.26691C175.657 8.29945 172.152 9.50982 171.193 9.99146C170.234 10.4731 149.209 20.2608 149.209 20.2608C149.209 20.2608 145.448 21.5884 146.173 24.9683Z" fill="white" stroke="#263238" stroke-width="0.0527931" stroke-miterlimit="10"/>
<path d="M164.313 33.5781C164.298 34.271 164.093 34.9463 163.719 35.5298" stroke="#263238" stroke-width="0.0527931" stroke-miterlimit="10"/>
<path d="M150.184 20.5352C150.184 20.5352 156.219 20.7362 160.336 25.5107C162.312 27.81 163.464 29.77 163.984 31.3992" stroke="#263238" stroke-width="0.0527931" stroke-miterlimit="10"/>
<path d="M147.133 24.455L150.32 23.3242C150.32 23.3242 154.697 23.5923 157.549 26.3774C160.401 29.1625 160.535 32.4837 160.271 33.5433L157.285 36.1316" stroke="#263238" stroke-width="0.0527931" stroke-miterlimit="10"/>
<path d="M140.363 29.5625C140.363 29.5625 145.686 32.9675 147.462 34.538C148.744 35.6688 148.593 39.7774 148.593 39.7774" stroke="#263238" stroke-width="0.0527931" stroke-miterlimit="10"/>
<path d="M128.424 31.9048C128.275 32.0358 128.156 32.196 128.072 32.3755C127.988 32.555 127.943 32.7498 127.938 32.9477C127.922 34.5089 128.284 36.0507 128.993 37.4416C130.405 40.3104 136.645 44.8672 137.604 45.2315C138.563 45.5959 139.2 45.0054 139.472 43.5018C139.744 41.9983 138.362 37.8729 137.014 36.6207C136.406 36.0595 132.155 33.0733 130.208 31.775C129.938 31.596 129.617 31.5116 129.294 31.5351C128.971 31.5586 128.665 31.6886 128.424 31.9048Z" fill="#263238" stroke="#263238" stroke-width="0.0527931" stroke-miterlimit="10"/>
<path d="M138.712 37.2137L146.979 35.3374L158.555 28.494C158.555 28.494 159.393 27.7653 157.546 26.3664C156.73 25.7017 155.849 25.1221 154.916 24.6367L143.344 31.4718L146.1 33.3481L136.727 35.4421C137.43 35.9846 138.093 36.5767 138.712 37.2137Z" fill="#263238"/>
<path d="M186.029 15.55C185.263 14.0214 183.701 12.4969 182.004 11.2907C181.728 11.2312 181.443 11.2312 181.167 11.2907C180.396 11.5127 157.797 23.0887 157.797 23.0887C160.992 25.1828 163.526 30.1415 163.526 30.1415C163.526 30.1415 185.564 15.2778 186.029 15.55Z" fill="#263238"/>
<path d="M106.096 37.1816C104.5 36.566 104.128 34.3588 104.128 34.3588C104.128 34.3588 104.743 30.5518 106.95 28.9519C109.157 27.352 110.883 27.2348 111.863 27.2348C112.315 27.2348 112.994 27.8253 113.601 28.4912C113.974 26.3035 113.985 24.0695 113.635 21.8781C108.575 22.0415 104.45 19.6081 96.0444 19.2731C89.046 19.0009 82.458 21.6938 79.6059 23.0424C79.5232 23.7219 79.4826 24.4059 79.4844 25.0904C79.4845 26.2737 79.6052 27.4539 79.8446 28.6127C80.3136 28.3237 80.8036 28.0703 81.3105 27.8546C82.7847 27.2389 86.3362 29.2032 86.8346 29.5759C87.333 29.9487 88.6774 32.7673 88.6774 32.7673C88.6774 32.7673 87.3288 35.343 85.2389 35.8372C84.6347 35.9834 84.0132 36.0454 83.392 36.0215C84.7323 37.6564 86.3622 39.0307 88.2 40.0756L88.556 39.6568C89.6574 38.3082 91.4877 36.0969 91.4877 36.0969C91.4877 36.0969 98.6075 36.4654 99.5917 36.4654C100.576 36.4654 101.435 37.8182 101.803 39.5354C101.975 40.3353 102.147 40.9677 102.281 41.4242C104.588 40.6202 106.702 39.3436 108.487 37.6758C107.671 37.6275 106.865 37.4611 106.096 37.1816Z" fill="#263238" stroke="#263238" stroke-width="0.0527931" stroke-miterlimit="10"/>
<path d="M96.6963 3.29297C92.389 3.29297 88.1784 4.57025 84.5969 6.96329C81.0155 9.35632 78.2241 12.7576 76.5758 16.7371C74.9274 20.7166 74.4961 25.0955 75.3364 29.3201C76.1768 33.5447 78.251 37.4252 81.2967 40.471C84.3425 43.5167 88.223 45.5909 92.4476 46.4312C96.6722 47.2716 101.051 46.8403 105.031 45.1919C109.01 43.5436 112.411 40.7522 114.804 37.1708C117.197 33.5893 118.475 29.3787 118.475 25.0713C118.475 19.2954 116.18 13.7559 112.096 9.6717C108.012 5.58747 102.472 3.29297 96.6963 3.29297ZM108.494 37.6609C106.261 39.7548 103.511 41.2165 100.526 41.8957C97.5411 42.575 94.4292 42.4473 91.5099 41.5258C88.5906 40.6043 85.9693 38.9222 83.9153 36.6524C81.8613 34.3826 80.4486 31.6068 79.8223 28.6103C79.5829 27.4515 79.4622 26.2714 79.4621 25.0881C79.4603 24.4036 79.5009 23.7196 79.5836 23.0401C79.911 20.2868 80.8977 17.6532 82.46 15.3626C84.0223 13.072 86.1141 11.192 88.5578 9.88221C91.0016 8.57239 93.7253 7.87136 96.4977 7.83861C99.2702 7.80585 102.01 8.44233 104.484 9.69404C106.958 10.9458 109.093 12.7758 110.709 15.0288C112.325 17.2819 113.374 19.8915 113.766 22.6362C114.159 25.381 113.883 28.1799 112.963 30.7955C112.043 33.411 110.506 35.7661 108.482 37.6609H108.494Z" fill="#F31D32" stroke="#263238" stroke-width="0.0527931" stroke-miterlimit="10"/>
<path d="M111.253 25.8917C111.456 24.4544 111.231 22.9893 110.608 21.6784C106.713 21.1214 102.734 19.5215 96.0248 19.2577C90.7938 19.0525 85.7974 20.5141 82.4133 21.8208C81.9078 22.3322 81.484 22.9185 81.1569 23.5589C80.6627 24.6646 81.2783 26.3817 81.2783 26.3817L95.1537 26.6288L111.253 25.8917Z" fill="white" stroke="#263238" stroke-width="0.0527931" stroke-miterlimit="10"/>
<path d="M88.7746 20.8532C88.7746 20.8532 87.3004 21.3432 87.5475 24.7816C87.7946 28.2201 89.8803 32.3957 91.3545 33.3757C92.8287 34.3557 97.9843 34.8499 99.58 33.7443C101.176 32.6386 103.266 24.6602 103.018 22.8174C102.771 20.9746 101.791 20.7233 100.564 20.4846C97.03 19.8995 93.4272 19.8571 89.8803 20.359C89.4748 20.4242 89.0936 20.5946 88.7746 20.8532Z" fill="#CFCFCF" stroke="#263238" stroke-width="0.0527931" stroke-miterlimit="10"/>
<path d="M109.511 23.4316C109.511 24.3153 108.606 25.0273 107.484 25.0273C106.361 25.0273 105.461 24.3153 105.461 23.4316C105.461 22.5479 106.366 21.8359 107.484 21.8359C108.602 21.8359 109.511 22.5521 109.511 23.4316Z" fill="white" stroke="#263238" stroke-width="0.0527931" stroke-miterlimit="10"/>
<path d="M86.1815 23.2868C86.2988 24.1579 85.4947 24.9871 84.3848 25.1337C83.275 25.2803 82.2908 24.7149 82.1651 23.8228C82.0395 22.9308 82.8562 22.1183 83.9618 21.9717C85.0675 21.8251 86.0601 22.4114 86.1815 23.2868Z" fill="white" stroke="#263238" stroke-width="0.0527931" stroke-miterlimit="10"/>
<path d="M39.0813 3.6041H30.5249V5.27936C26.4185 6.97476 22.9078 9.8509 20.4374 13.5434C17.9671 17.2359 16.6484 21.5785 16.6484 26.0212C16.6484 30.4638 17.9671 34.8064 20.4374 38.4989C22.9078 42.1914 26.4185 45.0676 30.5249 46.763V48.4382H39.0813C45.0317 48.4382 50.7383 46.0744 54.9459 41.8669C59.1534 37.6593 61.5172 31.9527 61.5172 26.0023C61.5172 20.0519 59.1534 14.3453 54.9459 10.1377C50.7383 5.93018 45.0317 3.56641 39.0813 3.56641V3.6041Z" fill="#263238" stroke="#263238" stroke-width="0.0527931" stroke-miterlimit="10"/>
<path d="M30.5258 48.4773C42.9168 48.4773 52.9617 38.4324 52.9617 26.0414C52.9617 13.6504 42.9168 3.60547 30.5258 3.60547C18.1347 3.60547 8.08984 13.6504 8.08984 26.0414C8.08984 38.4324 18.1347 48.4773 30.5258 48.4773Z" fill="#878787" stroke="#263238" stroke-width="0.0527931" stroke-miterlimit="10"/>
<path d="M30.5259 45.3994C41.2191 45.3994 49.8877 36.7308 49.8877 26.0376C49.8877 15.3444 41.2191 6.67578 30.5259 6.67578C19.8326 6.67578 11.1641 15.3444 11.1641 26.0376C11.1641 36.7308 19.8326 45.3994 30.5259 45.3994Z" fill="#F31D32" stroke="#263238" stroke-width="0.0527931" stroke-miterlimit="10"/>
<path d="M36.4073 9.81931L34.5519 18.539C34.518 18.6966 34.5323 18.8607 34.5927 19.01C34.6532 19.1594 34.7572 19.2871 34.8912 19.3767C35.0248 19.4706 35.1844 19.5203 35.3477 19.5191C35.5152 19.5182 35.6786 19.4671 35.8167 19.3725L43.1209 14.2587C41.2631 12.2717 38.963 10.7508 36.4073 9.81931ZM46.8776 20.5242L38.9202 24.5071C38.7737 24.5799 38.6526 24.6951 38.5727 24.8378C38.4928 24.9804 38.4578 25.1439 38.4723 25.3068C38.4867 25.4697 38.55 25.6244 38.6538 25.7507C38.7577 25.877 38.8972 25.9691 39.0542 26.0149L47.6106 28.5278C47.7345 27.6959 47.7961 26.8559 47.7948 26.0149C47.7863 24.1527 47.4766 22.3042 46.8776 20.541V20.5242ZM36.9475 31.6312C36.8229 31.5799 36.6877 31.5594 36.5535 31.5715C36.4192 31.5835 36.2899 31.6278 36.1764 31.7006C36.0629 31.7734 35.9687 31.8724 35.9017 31.9894C35.8347 32.1064 35.797 32.2378 35.7916 32.3725C35.7918 32.4762 35.8132 32.5788 35.8544 32.674L39.205 40.9414C41.5537 39.568 43.5465 37.6613 45.0223 35.3754L36.9475 31.6312ZM30.1586 34.5629C30.1174 34.4074 30.0323 34.267 29.9134 34.1586C29.7946 34.0501 29.6471 33.9782 29.4885 33.9514H29.367C29.2224 33.9519 29.0806 33.991 28.9562 34.0647C28.8318 34.1383 28.7293 34.2438 28.6592 34.3702L24.2952 42.1225C26.8262 43.1016 29.5524 43.4704 32.2526 43.1988L30.1586 34.5629ZM23.7088 30.1653C23.6394 30.0392 23.5377 29.9339 23.414 29.8602C23.2903 29.7866 23.1492 29.7473 23.0052 29.7465C22.962 29.7424 22.9186 29.7424 22.8754 29.7465L14.0803 31.1872C14.8948 33.785 16.3128 36.1531 18.2181 38.0977L23.6627 31.0532C23.7563 30.9227 23.8104 30.768 23.8186 30.6077C23.8268 30.4473 23.7887 30.2879 23.7088 30.1486V30.1653ZM22.8712 22.3879L16.2372 16.3863C14.7098 18.6392 13.7408 21.2233 13.4102 23.925L22.3225 23.7952C22.4824 23.789 22.6371 23.7373 22.7685 23.646C22.8999 23.5547 23.0024 23.4277 23.0638 23.28C23.1018 23.184 23.1217 23.0817 23.1225 22.9785C23.1233 22.864 23.0999 22.7507 23.0537 22.646C23.0075 22.5414 22.9395 22.4477 22.8544 22.3712L22.8712 22.3879ZM21.5142 11.327L27.1724 18.2124C27.2493 18.3048 27.3453 18.3795 27.4537 18.4316C27.5621 18.4836 27.6804 18.5117 27.8006 18.5139C27.8817 18.5137 27.9622 18.501 28.0394 18.4762C28.1955 18.425 28.3332 18.3291 28.4352 18.2002C28.5372 18.0714 28.5991 17.9154 28.6131 17.7517L29.1618 8.84766C26.4517 9.05399 23.8299 9.90398 21.5142 11.327Z" fill="#263238" stroke="#263238" stroke-width="0.0527931" stroke-miterlimit="10"/>
<path d="M30.5237 28.8873C32.0966 28.8873 33.3717 27.6122 33.3717 26.0393C33.3717 24.4665 32.0966 23.1914 30.5237 23.1914C28.9508 23.1914 27.6758 24.4665 27.6758 26.0393C27.6758 27.6122 28.9508 28.8873 30.5237 28.8873Z" fill="#F31D32" stroke="#263238" stroke-width="0.0527931" stroke-miterlimit="10"/>
<path d="M26.6747 26.5229C26.6747 26.1916 26.5765 25.8677 26.3924 25.5922C26.2083 25.3167 25.9467 25.102 25.6406 24.9752C25.3345 24.8484 24.9976 24.8152 24.6727 24.8798C24.3477 24.9445 24.0492 25.104 23.8149 25.3383C23.5806 25.5726 23.421 25.8711 23.3564 26.1961C23.2918 26.5211 23.3249 26.8579 23.4517 27.164C23.5785 27.4701 23.7933 27.7318 24.0688 27.9158C24.3443 28.0999 24.6681 28.1982 24.9995 28.1982C25.4438 28.1982 25.8699 28.0217 26.1841 27.7075C26.4982 27.3933 26.6747 26.9672 26.6747 26.5229Z" fill="#263238" stroke="#263238" stroke-width="0.0527931" stroke-miterlimit="10"/>
<path d="M30.0107 21.3237C30.0107 20.9924 29.9124 20.6685 29.7283 20.393C29.5443 20.1175 29.2826 19.9028 28.9765 19.776C28.6704 19.6492 28.3336 19.616 28.0086 19.6806C27.6836 19.7453 27.3851 19.9048 27.1508 20.1391C26.9165 20.3734 26.757 20.6719 26.6923 20.9969C26.6277 21.3218 26.6609 21.6587 26.7877 21.9648C26.9145 22.2709 27.1292 22.5325 27.4047 22.7166C27.6802 22.9007 28.0041 22.999 28.3354 22.999C28.7797 22.999 29.2058 22.8225 29.52 22.5083C29.8342 22.1941 30.0107 21.768 30.0107 21.3237Z" fill="#263238" stroke="#263238" stroke-width="0.0527931" stroke-miterlimit="10"/>
<path d="M36.6435 22.5424C36.6435 22.2111 36.5452 21.8872 36.3612 21.6117C36.1771 21.3362 35.9154 21.1215 35.6093 20.9947C35.3032 20.8679 34.9664 20.8347 34.6414 20.8994C34.3164 20.964 34.0179 21.1236 33.7836 21.3579C33.5494 21.5922 33.3898 21.8907 33.3252 22.2156C33.2605 22.5406 33.2937 22.8774 33.4205 23.1835C33.5473 23.4897 33.762 23.7513 34.0375 23.9354C34.313 24.1195 34.6369 24.2177 34.9682 24.2177C35.4125 24.2177 35.8386 24.0412 36.1528 23.727C36.467 23.4129 36.6435 22.9868 36.6435 22.5424Z" fill="#263238" stroke="#263238" stroke-width="0.0527931" stroke-miterlimit="10"/>
<path d="M36.874 28.726C36.874 28.3947 36.7757 28.0708 36.5916 27.7953C36.4075 27.5198 36.1459 27.3051 35.8398 27.1783C35.5337 27.0515 35.1968 27.0183 34.8719 27.083C34.5469 27.1476 34.2484 27.3072 34.0141 27.5415C33.7798 27.7757 33.6203 28.0742 33.5556 28.3992C33.491 28.7242 33.5242 29.061 33.651 29.3671C33.7778 29.6732 33.9925 29.9349 34.268 30.119C34.5435 30.303 34.8674 30.4013 35.1987 30.4013C35.643 30.4013 36.0691 30.2248 36.3833 29.9106C36.6975 29.5965 36.874 29.1703 36.874 28.726Z" fill="#263238" stroke="#263238" stroke-width="0.0527931" stroke-miterlimit="10"/>
<path d="M31.2568 31.1635C31.2568 30.8322 31.1585 30.5083 30.9744 30.2328C30.7904 29.9573 30.5287 29.7426 30.2226 29.6158C29.9165 29.489 29.5797 29.4558 29.2547 29.5205C28.9297 29.5851 28.6312 29.7447 28.3969 29.979C28.1626 30.2132 28.0031 30.5117 27.9384 30.8367C27.8738 31.1617 27.907 31.4985 28.0338 31.8046C28.1606 32.1107 28.3753 32.3724 28.6508 32.5565C28.9263 32.7405 29.2502 32.8388 29.5815 32.8388C30.0258 32.8388 30.4519 32.6623 30.7661 32.3481C31.0803 32.034 31.2568 31.6078 31.2568 31.1635Z" fill="#263238" stroke="#263238" stroke-width="0.0527931" stroke-miterlimit="10"/>
</svg>
